<svg width="629" height="136" viewBox="0 0 629 136" fill="none" xmlns="http://www.w3.org/2000/svg">
<g filter="url(#filter0_ddd_77_183)">
<mask id="path-1-outside-1_77_183" maskUnits="userSpaceOnUse" x="23" y="18" width="584" height="93" fill="black">
<rect fill="white" x="23" y="18" width="584" height="93"/>
<path d="M34.2534 109.391L25.1274 100.265H24.5424V20.237H43.1454V20.822L62.3334 40.127V35.798H65.3754V30.416H71.2254V25.619H75.5544V20.237H94.1574V20.822L103.4 30.065V109.391H80.2344L70.9914 100.265H70.4064V76.397H62.2164L59.4084 73.589H57.4194V109.391H34.2534ZM29.8074 95H43.0284V49.019H45.0174V54.167H50.1654V59.198H55.1964V64.346H63.5034V59.198H68.5344V54.167H73.6824V49.019H75.6714V95H88.8924V25.502H80.8194V30.65H75.6714V35.681H70.6404V40.829H65.4924V45.977H60.3444V51.125H58.2384V45.977H53.2074V40.829H48.0594V35.681H43.0284V30.65H37.8804V25.502H29.8074V95ZM111.258 104.243L102.015 95.117H101.43V25.385H106.461V20.237H145.656V20.822L159.813 35.213V103.307H154.782V107.051H118.629L115.938 104.243H111.258ZM132.201 86.81H119.916V33.692H132.201V86.81ZM111.726 95H140.391V89.852H145.422V30.65H140.391V25.502H111.726V30.65H106.695V89.852H111.726V95ZM163.931 109.391L154.688 100.265H154.103V20.237H177.971V20.822L184.757 27.608V20.237H208.625V20.822L217.751 30.065V109.391H194.468L187.097 102.02V109.391H163.931ZM159.368 95H172.706V49.019H174.695V54.167H179.726V59.198H184.991V64.346H190.022V95H203.36V25.502H190.022V51.125H188.033V45.977H182.885V40.829H177.737V35.681H172.706V25.502H159.368V95ZM222.431 109.391L213.188 100.265H212.603V20.237H236.471V20.822L243.257 27.608V20.237H267.125V20.822L276.251 30.065V109.391H252.968L245.597 102.02V109.391H222.431ZM217.868 95H231.206V49.019H233.195V54.167H238.226V59.198H243.491V64.346H248.522V95H261.86V25.502H248.522V51.125H246.533V45.977H241.385V40.829H236.237V35.681H231.206V25.502H217.868V95ZM280.463 109.391L271.337 100.265H270.635V20.237H294.503V20.822L303.629 30.065V109.391H280.463ZM275.9 95H289.238V25.502H275.9V95ZM320.36 104.243L300.938 84.938H300.353V20.237H324.221V20.822L331.007 27.608V20.237H354.875V20.822L364.001 30.065V94.064H358.853V98.276H353.822V103.307H348.557V107.051H327.965V104.243H320.36ZM320.945 95H334.283V89.852H339.431V84.821H344.462V79.673H349.61V25.502H336.272V76.631H331.241V81.779H323.987V76.631H318.956V25.502H305.618V79.673H310.766V84.821H315.797V89.852H320.945V95ZM396.531 78.737V81.545H412.911V82.13L422.037 91.373V109.391H373.365L364.122 100.265H363.537V20.237H418.059V20.822L427.185 30.065V48.2H396.531V50.891H412.911V51.476L422.037 60.719V78.737H396.531ZM368.802 95H407.646V86.81H382.14V64.346H407.646V56.156H382.14V33.692H412.794V25.502H368.802V95ZM431.865 109.391L422.622 100.265H422.037V20.237H476.559V20.822L485.685 30.065V109.391H462.402L455.031 102.02V109.391H431.865ZM457.956 61.304H440.64V33.692H457.956V61.304ZM427.302 95H440.64V69.377H457.956V95H471.294V66.335H466.146V64.346H471.294V25.502H427.302V95ZM517.073 48.2V50.891H528.305V51.476L542.462 65.867V109.391H493.907L484.664 100.265H484.079V81.545H509.585V77.099H501.278V73.589H493.907L484.664 64.463H484.079V20.237H533.336V20.822L542.462 30.065V48.2H517.073ZM489.344 95H528.071V61.304H523.04V56.156H502.565V33.692H528.071V25.502H489.344V59.198H494.375V64.346H514.85V86.81H489.344V95ZM574.431 78.737V81.545H590.811V82.13L599.937 91.373V109.391H551.265L542.022 100.265H541.437V20.237H595.959V20.822L605.085 30.065V48.2H574.431V50.891H590.811V51.476L599.937 60.719V78.737H574.431ZM546.702 95H585.546V86.81H560.04V64.346H585.546V56.156H560.04V33.692H590.694V25.502H546.702V95Z"/>
</mask>
<path d="M34.2534 109.391L25.1274 100.265H24.5424V20.237H43.1454V20.822L62.3334 40.127V35.798H65.3754V30.416H71.2254V25.619H75.5544V20.237H94.1574V20.822L103.4 30.065V109.391H80.2344L70.9914 100.265H70.4064V76.397H62.2164L59.4084 73.589H57.4194V109.391H34.2534ZM29.8074 95H43.0284V49.019H45.0174V54.167H50.1654V59.198H55.1964V64.346H63.5034V59.198H68.5344V54.167H73.6824V49.019H75.6714V95H88.8924V25.502H80.8194V30.65H75.6714V35.681H70.6404V40.829H65.4924V45.977H60.3444V51.125H58.2384V45.977H53.2074V40.829H48.0594V35.681H43.0284V30.65H37.8804V25.502H29.8074V95ZM111.258 104.243L102.015 95.117H101.43V25.385H106.461V20.237H145.656V20.822L159.813 35.213V103.307H154.782V107.051H118.629L115.938 104.243H111.258ZM132.201 86.81H119.916V33.692H132.201V86.81ZM111.726 95H140.391V89.852H145.422V30.65H140.391V25.502H111.726V30.65H106.695V89.852H111.726V95ZM163.931 109.391L154.688 100.265H154.103V20.237H177.971V20.822L184.757 27.608V20.237H208.625V20.822L217.751 30.065V109.391H194.468L187.097 102.02V109.391H163.931ZM159.368 95H172.706V49.019H174.695V54.167H179.726V59.198H184.991V64.346H190.022V95H203.36V25.502H190.022V51.125H188.033V45.977H182.885V40.829H177.737V35.681H172.706V25.502H159.368V95ZM222.431 109.391L213.188 100.265H212.603V20.237H236.471V20.822L243.257 27.608V20.237H267.125V20.822L276.251 30.065V109.391H252.968L245.597 102.02V109.391H222.431ZM217.868 95H231.206V49.019H233.195V54.167H238.226V59.198H243.491V64.346H248.522V95H261.86V25.502H248.522V51.125H246.533V45.977H241.385V40.829H236.237V35.681H231.206V25.502H217.868V95ZM280.463 109.391L271.337 100.265H270.635V20.237H294.503V20.822L303.629 30.065V109.391H280.463ZM275.9 95H289.238V25.502H275.9V95ZM320.36 104.243L300.938 84.938H300.353V20.237H324.221V20.822L331.007 27.608V20.237H354.875V20.822L364.001 30.065V94.064H358.853V98.276H353.822V103.307H348.557V107.051H327.965V104.243H320.36ZM320.945 95H334.283V89.852H339.431V84.821H344.462V79.673H349.61V25.502H336.272V76.631H331.241V81.779H323.987V76.631H318.956V25.502H305.618V79.673H310.766V84.821H315.797V89.852H320.945V95ZM396.531 78.737V81.545H412.911V82.13L422.037 91.373V109.391H373.365L364.122 100.265H363.537V20.237H418.059V20.822L427.185 30.065V48.2H396.531V50.891H412.911V51.476L422.037 60.719V78.737H396.531ZM368.802 95H407.646V86.81H382.14V64.346H407.646V56.156H382.14V33.692H412.794V25.502H368.802V95ZM431.865 109.391L422.622 100.265H422.037V20.237H476.559V20.822L485.685 30.065V109.391H462.402L455.031 102.02V109.391H431.865ZM457.956 61.304H440.64V33.692H457.956V61.304ZM427.302 95H440.64V69.377H457.956V95H471.294V66.335H466.146V64.346H471.294V25.502H427.302V95ZM517.073 48.2V50.891H528.305V51.476L542.462 65.867V109.391H493.907L484.664 100.265H484.079V81.545H509.585V77.099H501.278V73.589H493.907L484.664 64.463H484.079V20.237H533.336V20.822L542.462 30.065V48.2H517.073ZM489.344 95H528.071V61.304H523.04V56.156H502.565V33.692H528.071V25.502H489.344V59.198H494.375V64.346H514.85V86.81H489.344V95ZM574.431 78.737V81.545H590.811V82.13L599.937 91.373V109.391H551.265L542.022 100.265H541.437V20.237H595.959V20.822L605.085 30.065V48.2H574.431V50.891H590.811V51.476L599.937 60.719V78.737H574.431ZM546.702 95H585.546V86.81H560.04V64.346H585.546V56.156H560.04V33.692H590.694V25.502H546.702V95Z" fill="#251E1E" shape-rendering="crispEdges"/>
<path d="M34.2534 109.391L33.1928 110.452L33.6321 110.891H34.2534V109.391ZM25.1274 100.265L26.1881 99.2043L25.7488 98.765H25.1274V100.265ZM24.5424 100.265H23.0424V101.765H24.5424V100.265ZM24.5424 20.237V18.737H23.0424V20.237H24.5424ZM43.1454 20.237H44.6454V18.737H43.1454V20.237ZM43.1454 20.822H41.6454V21.4407L42.0816 21.8794L43.1454 20.822ZM62.3334 40.127L61.2696 41.1844L63.8334 43.7639V40.127H62.3334ZM62.3334 35.798V34.298H60.8334V35.798H62.3334ZM65.3754 35.798V37.298H66.8754V35.798H65.3754ZM65.3754 30.416V28.916H63.8754V30.416H65.3754ZM71.2254 30.416V31.916H72.7254V30.416H71.2254ZM71.2254 25.619V24.119H69.7254V25.619H71.2254ZM75.5544 25.619V27.119H77.0544V25.619H75.5544ZM75.5544 20.237V18.737H74.0544V20.237H75.5544ZM94.1574 20.237H95.6574V18.737H94.1574V20.237ZM94.1574 20.822H92.6574V21.4433L93.0968 21.8827L94.1574 20.822ZM103.4 30.065H104.9V29.4437L104.461 29.0043L103.4 30.065ZM103.4 109.391V110.891H104.9V109.391H103.4ZM80.2344 109.391L79.1806 110.458L79.6187 110.891H80.2344V109.391ZM70.9914 100.265L72.0453 99.1976L71.6072 98.765H70.9914V100.265ZM70.4064 100.265H68.9064V101.765H70.4064V100.265ZM70.4064 76.397H71.9064V74.897H70.4064V76.397ZM62.2164 76.397L61.1558 77.4577L61.5951 77.897H62.2164V76.397ZM59.4084 73.589L60.4691 72.5283L60.0298 72.089H59.4084V73.589ZM57.4194 73.589V72.089H55.9194V73.589H57.4194ZM57.4194 109.391V110.891H58.9194V109.391H57.4194ZM29.8074 95H28.3074V96.5H29.8074V95ZM43.0284 95V96.5H44.5284V95H43.0284ZM43.0284 49.019V47.519H41.5284V49.019H43.0284ZM45.0174 49.019H46.5174V47.519H45.0174V49.019ZM45.0174 54.167H43.5174V55.667H45.0174V54.167ZM50.1654 54.167H51.6654V52.667H50.1654V54.167ZM50.1654 59.198H48.6654V60.698H50.1654V59.198ZM55.1964 59.198H56.6964V57.698H55.1964V59.198ZM55.1964 64.346H53.6964V65.846H55.1964V64.346ZM63.5034 64.346V65.846H65.0034V64.346H63.5034ZM63.5034 59.198V57.698H62.0034V59.198H63.5034ZM68.5344 59.198V60.698H70.0344V59.198H68.5344ZM68.5344 54.167V52.667H67.0344V54.167H68.5344ZM73.6824 54.167V55.667H75.1824V54.167H73.6824ZM73.6824 49.019V47.519H72.1824V49.019H73.6824ZM75.6714 49.019H77.1714V47.519H75.6714V49.019ZM75.6714 95H74.1714V96.5H75.6714V95ZM88.8924 95V96.5H90.3924V95H88.8924ZM88.8924 25.502H90.3924V24.002H88.8924V25.502ZM80.8194 25.502V24.002H79.3194V25.502H80.8194ZM80.8194 30.65V32.15H82.3194V30.65H80.8194ZM75.6714 30.65V29.15H74.1714V30.65H75.6714ZM75.6714 35.681V37.181H77.1714V35.681H75.6714ZM70.6404 35.681V34.181H69.1404V35.681H70.6404ZM70.6404 40.829V42.329H72.1404V40.829H70.6404ZM65.4924 40.829V39.329H63.9924V40.829H65.4924ZM65.4924 45.977V47.477H66.9924V45.977H65.4924ZM60.3444 45.977V44.477H58.8444V45.977H60.3444ZM60.3444 51.125V52.625H61.8444V51.125H60.3444ZM58.2384 51.125H56.7384V52.625H58.2384V51.125ZM58.2384 45.977H59.7384V44.477H58.2384V45.977ZM53.2074 45.977H51.7074V47.477H53.2074V45.977ZM53.2074 40.829H54.7074V39.329H53.2074V40.829ZM48.0594 40.829H46.5594V42.329H48.0594V40.829ZM48.0594 35.681H49.5594V34.181H48.0594V35.681ZM43.0284 35.681H41.5284V37.181H43.0284V35.681ZM43.0284 30.65H44.5284V29.15H43.0284V30.65ZM37.8804 30.65H36.3804V32.15H37.8804V30.65ZM37.8804 25.502H39.3804V24.002H37.8804V25.502ZM29.8074 25.502V24.002H28.3074V25.502H29.8074ZM35.3141 108.33L26.1881 99.2043L24.0668 101.326L33.1928 110.452L35.3141 108.33ZM25.1274 98.765H24.5424V101.765H25.1274V98.765ZM26.0424 100.265V20.237H23.0424V100.265H26.0424ZM24.5424 21.737H43.1454V18.737H24.5424V21.737ZM41.6454 20.237V20.822H44.6454V20.237H41.6454ZM42.0816 21.8794L61.2696 41.1844L63.3973 39.0696L44.2093 19.7646L42.0816 21.8794ZM63.8334 40.127V35.798H60.8334V40.127H63.8334ZM62.3334 37.298H65.3754V34.298H62.3334V37.298ZM66.8754 35.798V30.416H63.8754V35.798H66.8754ZM65.3754 31.916H71.2254V28.916H65.3754V31.916ZM72.7254 30.416V25.619H69.7254V30.416H72.7254ZM71.2254 27.119H75.5544V24.119H71.2254V27.119ZM77.0544 25.619V20.237H74.0544V25.619H77.0544ZM75.5544 21.737H94.1574V18.737H75.5544V21.737ZM92.6574 20.237V20.822H95.6574V20.237H92.6574ZM93.0968 21.8827L102.34 31.1257L104.461 29.0043L95.2181 19.7613L93.0968 21.8827ZM101.9 30.065V109.391H104.9V30.065H101.9ZM103.4 107.891H80.2344V110.891H103.4V107.891ZM81.2883 108.324L72.0453 99.1976L69.9376 101.332L79.1806 110.458L81.2883 108.324ZM70.9914 98.765H70.4064V101.765H70.9914V98.765ZM71.9064 100.265V76.397H68.9064V100.265H71.9064ZM70.4064 74.897H62.2164V77.897H70.4064V74.897ZM63.2771 75.3363L60.4691 72.5283L58.3478 74.6497L61.1558 77.4577L63.2771 75.3363ZM59.4084 72.089H57.4194V75.089H59.4084V72.089ZM55.9194 73.589V109.391H58.9194V73.589H55.9194ZM57.4194 107.891H34.2534V110.891H57.4194V107.891ZM29.8074 96.5H43.0284V93.5H29.8074V96.5ZM44.5284 95V49.019H41.5284V95H44.5284ZM43.0284 50.519H45.0174V47.519H43.0284V50.519ZM43.5174 49.019V54.167H46.5174V49.019H43.5174ZM45.0174 55.667H50.1654V52.667H45.0174V55.667ZM48.6654 54.167V59.198H51.6654V54.167H48.6654ZM50.1654 60.698H55.1964V57.698H50.1654V60.698ZM53.6964 59.198V64.346H56.6964V59.198H53.6964ZM55.1964 65.846H63.5034V62.846H55.1964V65.846ZM65.0034 64.346V59.198H62.0034V64.346H65.0034ZM63.5034 60.698H68.5344V57.698H63.5034V60.698ZM70.0344 59.198V54.167H67.0344V59.198H70.0344ZM68.5344 55.667H73.6824V52.667H68.5344V55.667ZM75.1824 54.167V49.019H72.1824V54.167H75.1824ZM73.6824 50.519H75.6714V47.519H73.6824V50.519ZM74.1714 49.019V95H77.1714V49.019H74.1714ZM75.6714 96.5H88.8924V93.5H75.6714V96.5ZM90.3924 95V25.502H87.3924V95H90.3924ZM88.8924 24.002H80.8194V27.002H88.8924V24.002ZM79.3194 25.502V30.65H82.3194V25.502H79.3194ZM80.8194 29.15H75.6714V32.15H80.8194V29.15ZM74.1714 30.65V35.681H77.1714V30.65H74.1714ZM75.6714 34.181H70.6404V37.181H75.6714V34.181ZM69.1404 35.681V40.829H72.1404V35.681H69.1404ZM70.6404 39.329H65.4924V42.329H70.6404V39.329ZM63.9924 40.829V45.977H66.9924V40.829H63.9924ZM65.4924 44.477H60.3444V47.477H65.4924V44.477ZM58.8444 45.977V51.125H61.8444V45.977H58.8444ZM60.3444 49.625H58.2384V52.625H60.3444V49.625ZM59.7384 51.125V45.977H56.7384V51.125H59.7384ZM58.2384 44.477H53.2074V47.477H58.2384V44.477ZM54.7074 45.977V40.829H51.7074V45.977H54.7074ZM53.2074 39.329H48.0594V42.329H53.2074V39.329ZM49.5594 40.829V35.681H46.5594V40.829H49.5594ZM48.0594 34.181H43.0284V37.181H48.0594V34.181ZM44.5284 35.681V30.65H41.5284V35.681H44.5284ZM43.0284 29.15H37.8804V32.15H43.0284V29.15ZM39.3804 30.65V25.502H36.3804V30.65H39.3804ZM37.8804 24.002H29.8074V27.002H37.8804V24.002ZM28.3074 25.502V95H31.3074V25.502H28.3074ZM111.258 104.243L110.204 105.31L110.642 105.743H111.258V104.243ZM102.015 95.117L103.069 94.0496L102.63 93.617H102.015V95.117ZM101.43 95.117H99.9297V96.617H101.43V95.117ZM101.43 25.385V23.885H99.9297V25.385H101.43ZM106.461 25.385V26.885H107.961V25.385H106.461ZM106.461 20.237V18.737H104.961V20.237H106.461ZM145.656 20.237H147.156V18.737H145.656V20.237ZM145.656 20.822H144.156V21.4361L144.586 21.8739L145.656 20.822ZM159.813 35.213H161.313V34.5989L160.882 34.1611L159.813 35.213ZM159.813 103.307V104.807H161.313V103.307H159.813ZM154.782 103.307V101.807H153.282V103.307H154.782ZM154.782 107.051V108.551H156.282V107.051H154.782ZM118.629 107.051L117.546 108.089L117.989 108.551H118.629V107.051ZM115.938 104.243L117.021 103.205L116.578 102.743H115.938V104.243ZM132.201 86.81V88.31H133.701V86.81H132.201ZM119.916 86.81H118.416V88.31H119.916V86.81ZM119.916 33.692V32.192H118.416V33.692H119.916ZM132.201 33.692H133.701V32.192H132.201V33.692ZM111.726 95H110.226V96.5H111.726V95ZM140.391 95V96.5H141.891V95H140.391ZM140.391 89.852V88.352H138.891V89.852H140.391ZM145.422 89.852V91.352H146.922V89.852H145.422ZM145.422 30.65H146.922V29.15H145.422V30.65ZM140.391 30.65H138.891V32.15H140.391V30.65ZM140.391 25.502H141.891V24.002H140.391V25.502ZM111.726 25.502V24.002H110.226V25.502H111.726ZM111.726 30.65V32.15H113.226V30.65H111.726ZM106.695 30.65V29.15H105.195V30.65H106.695ZM106.695 89.852H105.195V91.352H106.695V89.852ZM111.726 89.852H113.226V88.352H111.726V89.852ZM112.312 103.176L103.069 94.0496L100.961 96.1844L110.204 105.31L112.312 103.176ZM102.015 93.617H101.43V96.617H102.015V93.617ZM102.93 95.117V25.385H99.9297V95.117H102.93ZM101.43 26.885H106.461V23.885H101.43V26.885ZM107.961 25.385V20.237H104.961V25.385H107.961ZM106.461 21.737H145.656V18.737H106.461V21.737ZM144.156 20.237V20.822H147.156V20.237H144.156ZM144.586 21.8739L158.743 36.2649L160.882 34.1611L146.725 19.7701L144.586 21.8739ZM158.313 35.213V103.307H161.313V35.213H158.313ZM159.813 101.807H154.782V104.807H159.813V101.807ZM153.282 103.307V107.051H156.282V103.307H153.282ZM154.782 105.551H118.629V108.551H154.782V105.551ZM119.712 106.013L117.021 103.205L114.855 105.281L117.546 108.089L119.712 106.013ZM115.938 102.743H111.258V105.743H115.938V102.743ZM132.201 85.31H119.916V88.31H132.201V85.31ZM121.416 86.81V33.692H118.416V86.81H121.416ZM119.916 35.192H132.201V32.192H119.916V35.192ZM130.701 33.692V86.81H133.701V33.692H130.701ZM111.726 96.5H140.391V93.5H111.726V96.5ZM141.891 95V89.852H138.891V95H141.891ZM140.391 91.352H145.422V88.352H140.391V91.352ZM146.922 89.852V30.65H143.922V89.852H146.922ZM145.422 29.15H140.391V32.15H145.422V29.15ZM141.891 30.65V25.502H138.891V30.65H141.891ZM140.391 24.002H111.726V27.002H140.391V24.002ZM110.226 25.502V30.65H113.226V25.502H110.226ZM111.726 29.15H106.695V32.15H111.726V29.15ZM105.195 30.65V89.852H108.195V30.65H105.195ZM106.695 91.352H111.726V88.352H106.695V91.352ZM110.226 89.852V95H113.226V89.852H110.226ZM163.931 109.391L162.877 110.458L163.315 110.891H163.931V109.391ZM154.688 100.265L155.741 99.1976L155.303 98.765H154.688V100.265ZM154.103 100.265H152.603V101.765H154.103V100.265ZM154.103 20.237V18.737H152.603V20.237H154.103ZM177.971 20.237H179.471V18.737H177.971V20.237ZM177.971 20.822H176.471V21.4433L176.91 21.8827L177.971 20.822ZM184.757 27.608L183.696 28.6687L186.257 31.2293V27.608H184.757ZM184.757 20.237V18.737H183.257V20.237H184.757ZM208.625 20.237H210.125V18.737H208.625V20.237ZM208.625 20.822H207.125V21.4377L207.557 21.8759L208.625 20.822ZM217.751 30.065H219.251V29.4493L218.818 29.0111L217.751 30.065ZM217.751 109.391V110.891H219.251V109.391H217.751ZM194.468 109.391L193.407 110.452L193.846 110.891H194.468V109.391ZM187.097 102.02L188.157 100.959L185.597 98.3987V102.02H187.097ZM187.097 109.391V110.891H188.597V109.391H187.097ZM159.368 95H157.868V96.5H159.368V95ZM172.706 95V96.5H174.206V95H172.706ZM172.706 49.019V47.519H171.206V49.019H172.706ZM174.695 49.019H176.195V47.519H174.695V49.019ZM174.695 54.167H173.195V55.667H174.695V54.167ZM179.726 54.167H181.226V52.667H179.726V54.167ZM179.726 59.198H178.226V60.698H179.726V59.198ZM184.991 59.198H186.491V57.698H184.991V59.198ZM184.991 64.346H183.491V65.846H184.991V64.346ZM190.022 64.346H191.522V62.846H190.022V64.346ZM190.022 95H188.522V96.5H190.022V95ZM203.36 95V96.5H204.86V95H203.36ZM203.36 25.502H204.86V24.002H203.36V25.502ZM190.022 25.502V24.002H188.522V25.502H190.022ZM190.022 51.125V52.625H191.522V51.125H190.022ZM188.033 51.125H186.533V52.625H188.033V51.125ZM188.033 45.977H189.533V44.477H188.033V45.977ZM182.885 45.977H181.385V47.477H182.885V45.977ZM182.885 40.829H184.385V39.329H182.885V40.829ZM177.737 40.829H176.237V42.329H177.737V40.829ZM177.737 35.681H179.237V34.181H177.737V35.681ZM172.706 35.681H171.206V37.181H172.706V35.681ZM172.706 25.502H174.206V24.002H172.706V25.502ZM159.368 25.502V24.002H157.868V25.502H159.368ZM164.984 108.324L155.741 99.1976L153.634 101.332L162.877 110.458L164.984 108.324ZM154.688 98.765H154.103V101.765H154.688V98.765ZM155.603 100.265V20.237H152.603V100.265H155.603ZM154.103 21.737H177.971V18.737H154.103V21.737ZM176.471 20.237V20.822H179.471V20.237H176.471ZM176.91 21.8827L183.696 28.6687L185.817 26.5473L179.031 19.7613L176.91 21.8827ZM186.257 27.608V20.237H183.257V27.608H186.257ZM184.757 21.737H208.625V18.737H184.757V21.737ZM207.125 20.237V20.822H210.125V20.237H207.125ZM207.557 21.8759L216.683 31.1189L218.818 29.0111L209.692 19.7681L207.557 21.8759ZM216.251 30.065V109.391H219.251V30.065H216.251ZM217.751 107.891H194.468V110.891H217.751V107.891ZM195.528 108.33L188.157 100.959L186.036 103.081L193.407 110.452L195.528 108.33ZM185.597 102.02V109.391H188.597V102.02H185.597ZM187.097 107.891H163.931V110.891H187.097V107.891ZM159.368 96.5H172.706V93.5H159.368V96.5ZM174.206 95V49.019H171.206V95H174.206ZM172.706 50.519H174.695V47.519H172.706V50.519ZM173.195 49.019V54.167H176.195V49.019H173.195ZM174.695 55.667H179.726V52.667H174.695V55.667ZM178.226 54.167V59.198H181.226V54.167H178.226ZM179.726 60.698H184.991V57.698H179.726V60.698ZM183.491 59.198V64.346H186.491V59.198H183.491ZM184.991 65.846H190.022V62.846H184.991V65.846ZM188.522 64.346V95H191.522V64.346H188.522ZM190.022 96.5H203.36V93.5H190.022V96.5ZM204.86 95V25.502H201.86V95H204.86ZM203.36 24.002H190.022V27.002H203.36V24.002ZM188.522 25.502V51.125H191.522V25.502H188.522ZM190.022 49.625H188.033V52.625H190.022V49.625ZM189.533 51.125V45.977H186.533V51.125H189.533ZM188.033 44.477H182.885V47.477H188.033V44.477ZM184.385 45.977V40.829H181.385V45.977H184.385ZM182.885 39.329H177.737V42.329H182.885V39.329ZM179.237 40.829V35.681H176.237V40.829H179.237ZM177.737 34.181H172.706V37.181H177.737V34.181ZM174.206 35.681V25.502H171.206V35.681H174.206ZM172.706 24.002H159.368V27.002H172.706V24.002ZM157.868 25.502V95H160.868V25.502H157.868ZM222.431 109.391L221.377 110.458L221.815 110.891H222.431V109.391ZM213.188 100.265L214.241 99.1976L213.803 98.765H213.188V100.265ZM212.603 100.265H211.103V101.765H212.603V100.265ZM212.603 20.237V18.737H211.103V20.237H212.603ZM236.471 20.237H237.971V18.737H236.471V20.237ZM236.471 20.822H234.971V21.4433L235.41 21.8827L236.471 20.822ZM243.257 27.608L242.196 28.6687L244.757 31.2293V27.608H243.257ZM243.257 20.237V18.737H241.757V20.237H243.257ZM267.125 20.237H268.625V18.737H267.125V20.237ZM267.125 20.822H265.625V21.4377L266.057 21.8759L267.125 20.822ZM276.251 30.065H277.751V29.4493L277.318 29.0111L276.251 30.065ZM276.251 109.391V110.891H277.751V109.391H276.251ZM252.968 109.391L251.907 110.452L252.346 110.891H252.968V109.391ZM245.597 102.02L246.657 100.959L244.097 98.3987V102.02H245.597ZM245.597 109.391V110.891H247.097V109.391H245.597ZM217.868 95H216.368V96.5H217.868V95ZM231.206 95V96.5H232.706V95H231.206ZM231.206 49.019V47.519H229.706V49.019H231.206ZM233.195 49.019H234.695V47.519H233.195V49.019ZM233.195 54.167H231.695V55.667H233.195V54.167ZM238.226 54.167H239.726V52.667H238.226V54.167ZM238.226 59.198H236.726V60.698H238.226V59.198ZM243.491 59.198H244.991V57.698H243.491V59.198ZM243.491 64.346H241.991V65.846H243.491V64.346ZM248.522 64.346H250.022V62.846H248.522V64.346ZM248.522 95H247.022V96.5H248.522V95ZM261.86 95V96.5H263.36V95H261.86ZM261.86 25.502H263.36V24.002H261.86V25.502ZM248.522 25.502V24.002H247.022V25.502H248.522ZM248.522 51.125V52.625H250.022V51.125H248.522ZM246.533 51.125H245.033V52.625H246.533V51.125ZM246.533 45.977H248.033V44.477H246.533V45.977ZM241.385 45.977H239.885V47.477H241.385V45.977ZM241.385 40.829H242.885V39.329H241.385V40.829ZM236.237 40.829H234.737V42.329H236.237V40.829ZM236.237 35.681H237.737V34.181H236.237V35.681ZM231.206 35.681H229.706V37.181H231.206V35.681ZM231.206 25.502H232.706V24.002H231.206V25.502ZM217.868 25.502V24.002H216.368V25.502H217.868ZM223.484 108.324L214.241 99.1976L212.134 101.332L221.377 110.458L223.484 108.324ZM213.188 98.765H212.603V101.765H213.188V98.765ZM214.103 100.265V20.237H211.103V100.265H214.103ZM212.603 21.737H236.471V18.737H212.603V21.737ZM234.971 20.237V20.822H237.971V20.237H234.971ZM235.41 21.8827L242.196 28.6687L244.317 26.5473L237.531 19.7613L235.41 21.8827ZM244.757 27.608V20.237H241.757V27.608H244.757ZM243.257 21.737H267.125V18.737H243.257V21.737ZM265.625 20.237V20.822H268.625V20.237H265.625ZM266.057 21.8759L275.183 31.1189L277.318 29.0111L268.192 19.7681L266.057 21.8759ZM274.751 30.065V109.391H277.751V30.065H274.751ZM276.251 107.891H252.968V110.891H276.251V107.891ZM254.028 108.33L246.657 100.959L244.536 103.081L251.907 110.452L254.028 108.33ZM244.097 102.02V109.391H247.097V102.02H244.097ZM245.597 107.891H222.431V110.891H245.597V107.891ZM217.868 96.5H231.206V93.5H217.868V96.5ZM232.706 95V49.019H229.706V95H232.706ZM231.206 50.519H233.195V47.519H231.206V50.519ZM231.695 49.019V54.167H234.695V49.019H231.695ZM233.195 55.667H238.226V52.667H233.195V55.667ZM236.726 54.167V59.198H239.726V54.167H236.726ZM238.226 60.698H243.491V57.698H238.226V60.698ZM241.991 59.198V64.346H244.991V59.198H241.991ZM243.491 65.846H248.522V62.846H243.491V65.846ZM247.022 64.346V95H250.022V64.346H247.022ZM248.522 96.5H261.86V93.5H248.522V96.5ZM263.36 95V25.502H260.36V95H263.36ZM261.86 24.002H248.522V27.002H261.86V24.002ZM247.022 25.502V51.125H250.022V25.502H247.022ZM248.522 49.625H246.533V52.625H248.522V49.625ZM248.033 51.125V45.977H245.033V51.125H248.033ZM246.533 44.477H241.385V47.477H246.533V44.477ZM242.885 45.977V40.829H239.885V45.977H242.885ZM241.385 39.329H236.237V42.329H241.385V39.329ZM237.737 40.829V35.681H234.737V40.829H237.737ZM236.237 34.181H231.206V37.181H236.237V34.181ZM232.706 35.681V25.502H229.706V35.681H232.706ZM231.206 24.002H217.868V27.002H231.206V24.002ZM216.368 25.502V95H219.368V25.502H216.368ZM280.463 109.391L279.402 110.452L279.841 110.891H280.463V109.391ZM271.337 100.265L272.397 99.2043L271.958 98.765H271.337V100.265ZM270.635 100.265H269.135V101.765H270.635V100.265ZM270.635 20.237V18.737H269.135V20.237H270.635ZM294.503 20.237H296.003V18.737H294.503V20.237ZM294.503 20.822H293.003V21.4377L293.435 21.8759L294.503 20.822ZM303.629 30.065H305.129V29.4493L304.696 29.0111L303.629 30.065ZM303.629 109.391V110.891H305.129V109.391H303.629ZM275.9 95H274.4V96.5H275.9V95ZM289.238 95V96.5H290.738V95H289.238ZM289.238 25.502H290.738V24.002H289.238V25.502ZM275.9 25.502V24.002H274.4V25.502H275.9ZM281.523 108.33L272.397 99.2043L270.276 101.326L279.402 110.452L281.523 108.33ZM271.337 98.765H270.635V101.765H271.337V98.765ZM272.135 100.265V20.237H269.135V100.265H272.135ZM270.635 21.737H294.503V18.737H270.635V21.737ZM293.003 20.237V20.822H296.003V20.237H293.003ZM293.435 21.8759L302.561 31.1189L304.696 29.0111L295.57 19.7681L293.435 21.8759ZM302.129 30.065V109.391H305.129V30.065H302.129ZM303.629 107.891H280.463V110.891H303.629V107.891ZM275.9 96.5H289.238V93.5H275.9V96.5ZM290.738 95V25.502H287.738V95H290.738ZM289.238 24.002H275.9V27.002H289.238V24.002ZM274.4 25.502V95H277.4V25.502H274.4ZM320.36 104.243L319.302 105.307L319.741 105.743H320.36V104.243ZM300.938 84.938L301.995 83.8741L301.556 83.438H300.938V84.938ZM300.353 84.938H298.853V86.438H300.353V84.938ZM300.353 20.237V18.737H298.853V20.237H300.353ZM324.221 20.237H325.721V18.737H324.221V20.237ZM324.221 20.822H322.721V21.4433L323.16 21.8827L324.221 20.822ZM331.007 27.608L329.946 28.6687L332.507 31.2293V27.608H331.007ZM331.007 20.237V18.737H329.507V20.237H331.007ZM354.875 20.237H356.375V18.737H354.875V20.237ZM354.875 20.822H353.375V21.4377L353.807 21.8759L354.875 20.822ZM364.001 30.065H365.501V29.4493L365.068 29.0111L364.001 30.065ZM364.001 94.064V95.564H365.501V94.064H364.001ZM358.853 94.064V92.564H357.353V94.064H358.853ZM358.853 98.276V99.776H360.353V98.276H358.853ZM353.822 98.276V96.776H352.322V98.276H353.822ZM353.822 103.307V104.807H355.322V103.307H353.822ZM348.557 103.307V101.807H347.057V103.307H348.557ZM348.557 107.051V108.551H350.057V107.051H348.557ZM327.965 107.051H326.465V108.551H327.965V107.051ZM327.965 104.243H329.465V102.743H327.965V104.243ZM320.945 95H319.445V96.5H320.945V95ZM334.283 95V96.5H335.783V95H334.283ZM334.283 89.852V88.352H332.783V89.852H334.283ZM339.431 89.852V91.352H340.931V89.852H339.431ZM339.431 84.821V83.321H337.931V84.821H339.431ZM344.462 84.821V86.321H345.962V84.821H344.462ZM344.462 79.673V78.173H342.962V79.673H344.462ZM349.61 79.673V81.173H351.11V79.673H349.61ZM349.61 25.502H351.11V24.002H349.61V25.502ZM336.272 25.502V24.002H334.772V25.502H336.272ZM336.272 76.631V78.131H337.772V76.631H336.272ZM331.241 76.631V75.131H329.741V76.631H331.241ZM331.241 81.779V83.279H332.741V81.779H331.241ZM323.987 81.779H322.487V83.279H323.987V81.779ZM323.987 76.631H325.487V75.131H323.987V76.631ZM318.956 76.631H317.456V78.131H318.956V76.631ZM318.956 25.502H320.456V24.002H318.956V25.502ZM305.618 25.502V24.002H304.118V25.502H305.618ZM305.618 79.673H304.118V81.173H305.618V79.673ZM310.766 79.673H312.266V78.173H310.766V79.673ZM310.766 84.821H309.266V86.321H310.766V84.821ZM315.797 84.821H317.297V83.321H315.797V84.821ZM315.797 89.852H314.297V91.352H315.797V89.852ZM320.945 89.852H322.445V88.352H320.945V89.852ZM321.417 103.179L301.995 83.8741L299.88 86.0019L319.302 105.307L321.417 103.179ZM300.938 83.438H300.353V86.438H300.938V83.438ZM301.853 84.938V20.237H298.853V84.938H301.853ZM300.353 21.737H324.221V18.737H300.353V21.737ZM322.721 20.237V20.822H325.721V20.237H322.721ZM323.16 21.8827L329.946 28.6687L332.067 26.5473L325.281 19.7613L323.16 21.8827ZM332.507 27.608V20.237H329.507V27.608H332.507ZM331.007 21.737H354.875V18.737H331.007V21.737ZM353.375 20.237V20.822H356.375V20.237H353.375ZM353.807 21.8759L362.933 31.1189L365.068 29.0111L355.942 19.7681L353.807 21.8759ZM362.501 30.065V94.064H365.501V30.065H362.501ZM364.001 92.564H358.853V95.564H364.001V92.564ZM357.353 94.064V98.276H360.353V94.064H357.353ZM358.853 96.776H353.822V99.776H358.853V96.776ZM352.322 98.276V103.307H355.322V98.276H352.322ZM353.822 101.807H348.557V104.807H353.822V101.807ZM347.057 103.307V107.051H350.057V103.307H347.057ZM348.557 105.551H327.965V108.551H348.557V105.551ZM329.465 107.051V104.243H326.465V107.051H329.465ZM327.965 102.743H320.36V105.743H327.965V102.743ZM320.945 96.5H334.283V93.5H320.945V96.5ZM335.783 95V89.852H332.783V95H335.783ZM334.283 91.352H339.431V88.352H334.283V91.352ZM340.931 89.852V84.821H337.931V89.852H340.931ZM339.431 86.321H344.462V83.321H339.431V86.321ZM345.962 84.821V79.673H342.962V84.821H345.962ZM344.462 81.173H349.61V78.173H344.462V81.173ZM351.11 79.673V25.502H348.11V79.673H351.11ZM349.61 24.002H336.272V27.002H349.61V24.002ZM334.772 25.502V76.631H337.772V25.502H334.772ZM336.272 75.131H331.241V78.131H336.272V75.131ZM329.741 76.631V81.779H332.741V76.631H329.741ZM331.241 80.279H323.987V83.279H331.241V80.279ZM325.487 81.779V76.631H322.487V81.779H325.487ZM323.987 75.131H318.956V78.131H323.987V75.131ZM320.456 76.631V25.502H317.456V76.631H320.456ZM318.956 24.002H305.618V27.002H318.956V24.002ZM304.118 25.502V79.673H307.118V25.502H304.118ZM305.618 81.173H310.766V78.173H305.618V81.173ZM309.266 79.673V84.821H312.266V79.673H309.266ZM310.766 86.321H315.797V83.321H310.766V86.321ZM314.297 84.821V89.852H317.297V84.821H314.297ZM315.797 91.352H320.945V88.352H315.797V91.352ZM319.445 89.852V95H322.445V89.852H319.445ZM396.531 78.737V77.237H395.031V78.737H396.531ZM396.531 81.545H395.031V83.045H396.531V81.545ZM412.911 81.545H414.411V80.045H412.911V81.545ZM412.911 82.13H411.411V82.7457L411.844 83.1839L412.911 82.13ZM422.037 91.373H423.537V90.7573L423.105 90.3191L422.037 91.373ZM422.037 109.391V110.891H423.537V109.391H422.037ZM373.365 109.391L372.311 110.458L372.749 110.891H373.365V109.391ZM364.122 100.265L365.176 99.1976L364.738 98.765H364.122V100.265ZM363.537 100.265H362.037V101.765H363.537V100.265ZM363.537 20.237V18.737H362.037V20.237H363.537ZM418.059 20.237H419.559V18.737H418.059V20.237ZM418.059 20.822H416.559V21.4377L416.992 21.8759L418.059 20.822ZM427.185 30.065H428.685V29.4493L428.253 29.0111L427.185 30.065ZM427.185 48.2V49.7H428.685V48.2H427.185ZM396.531 48.2V46.7H395.031V48.2H396.531ZM396.531 50.891H395.031V52.391H396.531V50.891ZM412.911 50.891H414.411V49.391H412.911V50.891ZM412.911 51.476H411.411V52.0917L411.844 52.5299L412.911 51.476ZM422.037 60.719H423.537V60.1033L423.105 59.6651L422.037 60.719ZM422.037 78.737V80.237H423.537V78.737H422.037ZM368.802 95H367.302V96.5H368.802V95ZM407.646 95V96.5H409.146V95H407.646ZM407.646 86.81H409.146V85.31H407.646V86.81ZM382.14 86.81H380.64V88.31H382.14V86.81ZM382.14 64.346V62.846H380.64V64.346H382.14ZM407.646 64.346V65.846H409.146V64.346H407.646ZM407.646 56.156H409.146V54.656H407.646V56.156ZM382.14 56.156H380.64V57.656H382.14V56.156ZM382.14 33.692V32.192H380.64V33.692H382.14ZM412.794 33.692V35.192H414.294V33.692H412.794ZM412.794 25.502H414.294V24.002H412.794V25.502ZM368.802 25.502V24.002H367.302V25.502H368.802ZM395.031 78.737V81.545H398.031V78.737H395.031ZM396.531 83.045H412.911V80.045H396.531V83.045ZM411.411 81.545V82.13H414.411V81.545H411.411ZM411.844 83.1839L420.97 92.4269L423.105 90.3191L413.979 81.0761L411.844 83.1839ZM420.537 91.373V109.391H423.537V91.373H420.537ZM422.037 107.891H373.365V110.891H422.037V107.891ZM374.419 108.324L365.176 99.1976L363.068 101.332L372.311 110.458L374.419 108.324ZM364.122 98.765H363.537V101.765H364.122V98.765ZM365.037 100.265V20.237H362.037V100.265H365.037ZM363.537 21.737H418.059V18.737H363.537V21.737ZM416.559 20.237V20.822H419.559V20.237H416.559ZM416.992 21.8759L426.118 31.1189L428.253 29.0111L419.127 19.7681L416.992 21.8759ZM425.685 30.065V48.2H428.685V30.065H425.685ZM427.185 46.7H396.531V49.7H427.185V46.7ZM395.031 48.2V50.891H398.031V48.2H395.031ZM396.531 52.391H412.911V49.391H396.531V52.391ZM411.411 50.891V51.476H414.411V50.891H411.411ZM411.844 52.5299L420.97 61.7729L423.105 59.6651L413.979 50.4221L411.844 52.5299ZM420.537 60.719V78.737H423.537V60.719H420.537ZM422.037 77.237H396.531V80.237H422.037V77.237ZM368.802 96.5H407.646V93.5H368.802V96.5ZM409.146 95V86.81H406.146V95H409.146ZM407.646 85.31H382.14V88.31H407.646V85.31ZM383.64 86.81V64.346H380.64V86.81H383.64ZM382.14 65.846H407.646V62.846H382.14V65.846ZM409.146 64.346V56.156H406.146V64.346H409.146ZM407.646 54.656H382.14V57.656H407.646V54.656ZM383.64 56.156V33.692H380.64V56.156H383.64ZM382.14 35.192H412.794V32.192H382.14V35.192ZM414.294 33.692V25.502H411.294V33.692H414.294ZM412.794 24.002H368.802V27.002H412.794V24.002ZM367.302 25.502V95H370.302V25.502H367.302ZM431.865 109.391L430.811 110.458L431.249 110.891H431.865V109.391ZM422.622 100.265L423.676 99.1976L423.238 98.765H422.622V100.265ZM422.037 100.265H420.537V101.765H422.037V100.265ZM422.037 20.237V18.737H420.537V20.237H422.037ZM476.559 20.237H478.059V18.737H476.559V20.237ZM476.559 20.822H475.059V21.4377L475.492 21.8759L476.559 20.822ZM485.685 30.065H487.185V29.4493L486.753 29.0111L485.685 30.065ZM485.685 109.391V110.891H487.185V109.391H485.685ZM462.402 109.391L461.341 110.452L461.781 110.891H462.402V109.391ZM455.031 102.02L456.092 100.959L453.531 98.3987V102.02H455.031ZM455.031 109.391V110.891H456.531V109.391H455.031ZM457.956 61.304V62.804H459.456V61.304H457.956ZM440.64 61.304H439.14V62.804H440.64V61.304ZM440.64 33.692V32.192H439.14V33.692H440.64ZM457.956 33.692H459.456V32.192H457.956V33.692ZM427.302 95H425.802V96.5H427.302V95ZM440.64 95V96.5H442.14V95H440.64ZM440.64 69.377V67.877H439.14V69.377H440.64ZM457.956 69.377H459.456V67.877H457.956V69.377ZM457.956 95H456.456V96.5H457.956V95ZM471.294 95V96.5H472.794V95H471.294ZM471.294 66.335H472.794V64.835H471.294V66.335ZM466.146 66.335H464.646V67.835H466.146V66.335ZM466.146 64.346V62.846H464.646V64.346H466.146ZM471.294 64.346V65.846H472.794V64.346H471.294ZM471.294 25.502H472.794V24.002H471.294V25.502ZM427.302 25.502V24.002H425.802V25.502H427.302ZM432.919 108.324L423.676 99.1976L421.568 101.332L430.811 110.458L432.919 108.324ZM422.622 98.765H422.037V101.765H422.622V98.765ZM423.537 100.265V20.237H420.537V100.265H423.537ZM422.037 21.737H476.559V18.737H422.037V21.737ZM475.059 20.237V20.822H478.059V20.237H475.059ZM475.492 21.8759L484.618 31.1189L486.753 29.0111L477.627 19.7681L475.492 21.8759ZM484.185 30.065V109.391H487.185V30.065H484.185ZM485.685 107.891H462.402V110.891H485.685V107.891ZM463.463 108.33L456.092 100.959L453.97 103.081L461.341 110.452L463.463 108.33ZM453.531 102.02V109.391H456.531V102.02H453.531ZM455.031 107.891H431.865V110.891H455.031V107.891ZM457.956 59.804H440.64V62.804H457.956V59.804ZM442.14 61.304V33.692H439.14V61.304H442.14ZM440.64 35.192H457.956V32.192H440.64V35.192ZM456.456 33.692V61.304H459.456V33.692H456.456ZM427.302 96.5H440.64V93.5H427.302V96.5ZM442.14 95V69.377H439.14V95H442.14ZM440.64 70.877H457.956V67.877H440.64V70.877ZM456.456 69.377V95H459.456V69.377H456.456ZM457.956 96.5H471.294V93.5H457.956V96.5ZM472.794 95V66.335H469.794V95H472.794ZM471.294 64.835H466.146V67.835H471.294V64.835ZM467.646 66.335V64.346H464.646V66.335H467.646ZM466.146 65.846H471.294V62.846H466.146V65.846ZM472.794 64.346V25.502H469.794V64.346H472.794ZM471.294 24.002H427.302V27.002H471.294V24.002ZM425.802 25.502V95H428.802V25.502H425.802ZM517.073 48.2V46.7H515.573V48.2H517.073ZM517.073 50.891H515.573V52.391H517.073V50.891ZM528.305 50.891H529.805V49.391H528.305V50.891ZM528.305 51.476H526.805V52.0901L527.236 52.5279L528.305 51.476ZM542.462 65.867H543.962V65.2529L543.531 64.8151L542.462 65.867ZM542.462 109.391V110.891H543.962V109.391H542.462ZM493.907 109.391L492.853 110.458L493.291 110.891H493.907V109.391ZM484.664 100.265L485.718 99.1976L485.28 98.765H484.664V100.265ZM484.079 100.265H482.579V101.765H484.079V100.265ZM484.079 81.545V80.045H482.579V81.545H484.079ZM509.585 81.545V83.045H511.085V81.545H509.585ZM509.585 77.099H511.085V75.599H509.585V77.099ZM501.278 77.099H499.778V78.599H501.278V77.099ZM501.278 73.589H502.778V72.089H501.278V73.589ZM493.907 73.589L492.853 74.6564L493.291 75.089H493.907V73.589ZM484.664 64.463L485.718 63.3956L485.28 62.963H484.664V64.463ZM484.079 64.463H482.579V65.963H484.079V64.463ZM484.079 20.237V18.737H482.579V20.237H484.079ZM533.336 20.237H534.836V18.737H533.336V20.237ZM533.336 20.822H531.836V21.4377L532.269 21.8759L533.336 20.822ZM542.462 30.065H543.962V29.4493L543.53 29.0111L542.462 30.065ZM542.462 48.2V49.7H543.962V48.2H542.462ZM489.344 95H487.844V96.5H489.344V95ZM528.071 95V96.5H529.571V95H528.071ZM528.071 61.304H529.571V59.804H528.071V61.304ZM523.04 61.304H521.54V62.804H523.04V61.304ZM523.04 56.156H524.54V54.656H523.04V56.156ZM502.565 56.156H501.065V57.656H502.565V56.156ZM502.565 33.692V32.192H501.065V33.692H502.565ZM528.071 33.692V35.192H529.571V33.692H528.071ZM528.071 25.502H529.571V24.002H528.071V25.502ZM489.344 25.502V24.002H487.844V25.502H489.344ZM489.344 59.198H487.844V60.698H489.344V59.198ZM494.375 59.198H495.875V57.698H494.375V59.198ZM494.375 64.346H492.875V65.846H494.375V64.346ZM514.85 64.346H516.35V62.846H514.85V64.346ZM514.85 86.81V88.31H516.35V86.81H514.85ZM489.344 86.81V85.31H487.844V86.81H489.344ZM515.573 48.2V50.891H518.573V48.2H515.573ZM517.073 52.391H528.305V49.391H517.073V52.391ZM526.805 50.891V51.476H529.805V50.891H526.805ZM527.236 52.5279L541.393 66.9189L543.531 64.8151L529.374 50.4241L527.236 52.5279ZM540.962 65.867V109.391H543.962V65.867H540.962ZM542.462 107.891H493.907V110.891H542.462V107.891ZM494.961 108.324L485.718 99.1976L483.61 101.332L492.853 110.458L494.961 108.324ZM484.664 98.765H484.079V101.765H484.664V98.765ZM485.579 100.265V81.545H482.579V100.265H485.579ZM484.079 83.045H509.585V80.045H484.079V83.045ZM511.085 81.545V77.099H508.085V81.545H511.085ZM509.585 75.599H501.278V78.599H509.585V75.599ZM502.778 77.099V73.589H499.778V77.099H502.778ZM501.278 72.089H493.907V75.089H501.278V72.089ZM494.961 72.5216L485.718 63.3956L483.61 65.5304L492.853 74.6564L494.961 72.5216ZM484.664 62.963H484.079V65.963H484.664V62.963ZM485.579 64.463V20.237H482.579V64.463H485.579ZM484.079 21.737H533.336V18.737H484.079V21.737ZM531.836 20.237V20.822H534.836V20.237H531.836ZM532.269 21.8759L541.395 31.1189L543.53 29.0111L534.404 19.7681L532.269 21.8759ZM540.962 30.065V48.2H543.962V30.065H540.962ZM542.462 46.7H517.073V49.7H542.462V46.7ZM489.344 96.5H528.071V93.5H489.344V96.5ZM529.571 95V61.304H526.571V95H529.571ZM528.071 59.804H523.04V62.804H528.071V59.804ZM524.54 61.304V56.156H521.54V61.304H524.54ZM523.04 54.656H502.565V57.656H523.04V54.656ZM504.065 56.156V33.692H501.065V56.156H504.065ZM502.565 35.192H528.071V32.192H502.565V35.192ZM529.571 33.692V25.502H526.571V33.692H529.571ZM528.071 24.002H489.344V27.002H528.071V24.002ZM487.844 25.502V59.198H490.844V25.502H487.844ZM489.344 60.698H494.375V57.698H489.344V60.698ZM492.875 59.198V64.346H495.875V59.198H492.875ZM494.375 65.846H514.85V62.846H494.375V65.846ZM513.35 64.346V86.81H516.35V64.346H513.35ZM514.85 85.31H489.344V88.31H514.85V85.31ZM487.844 86.81V95H490.844V86.81H487.844ZM574.431 78.737V77.237H572.931V78.737H574.431ZM574.431 81.545H572.931V83.045H574.431V81.545ZM590.811 81.545H592.311V80.045H590.811V81.545ZM590.811 82.13H589.311V82.7457L589.743 83.1839L590.811 82.13ZM599.937 91.373H601.437V90.7573L601.004 90.3191L599.937 91.373ZM599.937 109.391V110.891H601.437V109.391H599.937ZM551.265 109.391L550.211 110.458L550.649 110.891H551.265V109.391ZM542.022 100.265L543.075 99.1976L542.637 98.765H542.022V100.265ZM541.437 100.265H539.937V101.765H541.437V100.265ZM541.437 20.237V18.737H539.937V20.237H541.437ZM595.959 20.237H597.459V18.737H595.959V20.237ZM595.959 20.822H594.459V21.4377L594.891 21.8759L595.959 20.822ZM605.085 30.065H606.585V29.4493L606.152 29.0111L605.085 30.065ZM605.085 48.2V49.7H606.585V48.2H605.085ZM574.431 48.2V46.7H572.931V48.2H574.431ZM574.431 50.891H572.931V52.391H574.431V50.891ZM590.811 50.891H592.311V49.391H590.811V50.891ZM590.811 51.476H589.311V52.0917L589.743 52.5299L590.811 51.476ZM599.937 60.719H601.437V60.1033L601.004 59.6651L599.937 60.719ZM599.937 78.737V80.237H601.437V78.737H599.937ZM546.702 95H545.202V96.5H546.702V95ZM585.546 95V96.5H587.046V95H585.546ZM585.546 86.81H587.046V85.31H585.546V86.81ZM560.04 86.81H558.54V88.31H560.04V86.81ZM560.04 64.346V62.846H558.54V64.346H560.04ZM585.546 64.346V65.846H587.046V64.346H585.546ZM585.546 56.156H587.046V54.656H585.546V56.156ZM560.04 56.156H558.54V57.656H560.04V56.156ZM560.04 33.692V32.192H558.54V33.692H560.04ZM590.694 33.692V35.192H592.194V33.692H590.694ZM590.694 25.502H592.194V24.002H590.694V25.502ZM546.702 25.502V24.002H545.202V25.502H546.702ZM572.931 78.737V81.545H575.931V78.737H572.931ZM574.431 83.045H590.811V80.045H574.431V83.045ZM589.311 81.545V82.13H592.311V81.545H589.311ZM589.743 83.1839L598.869 92.4269L601.004 90.3191L591.878 81.0761L589.743 83.1839ZM598.437 91.373V109.391H601.437V91.373H598.437ZM599.937 107.891H551.265V110.891H599.937V107.891ZM552.318 108.324L543.075 99.1976L540.968 101.332L550.211 110.458L552.318 108.324ZM542.022 98.765H541.437V101.765H542.022V98.765ZM542.937 100.265V20.237H539.937V100.265H542.937ZM541.437 21.737H595.959V18.737H541.437V21.737ZM594.459 20.237V20.822H597.459V20.237H594.459ZM594.891 21.8759L604.017 31.1189L606.152 29.0111L597.026 19.7681L594.891 21.8759ZM603.585 30.065V48.2H606.585V30.065H603.585ZM605.085 46.7H574.431V49.7H605.085V46.7ZM572.931 48.2V50.891H575.931V48.2H572.931ZM574.431 52.391H590.811V49.391H574.431V52.391ZM589.311 50.891V51.476H592.311V50.891H589.311ZM589.743 52.5299L598.869 61.7729L601.004 59.6651L591.878 50.4221L589.743 52.5299ZM598.437 60.719V78.737H601.437V60.719H598.437ZM599.937 77.237H574.431V80.237H599.937V77.237ZM546.702 96.5H585.546V93.5H546.702V96.5ZM587.046 95V86.81H584.046V95H587.046ZM585.546 85.31H560.04V88.31H585.546V85.31ZM561.54 86.81V64.346H558.54V86.81H561.54ZM560.04 65.846H585.546V62.846H560.04V65.846ZM587.046 64.346V56.156H584.046V64.346H587.046ZM585.546 54.656H560.04V57.656H585.546V54.656ZM561.54 56.156V33.692H558.54V56.156H561.54ZM560.04 35.192H590.694V32.192H560.04V35.192ZM592.194 33.692V25.502H589.194V33.692H592.194ZM590.694 24.002H546.702V27.002H590.694V24.002ZM545.202 25.502V95H548.202V25.502H545.202Z" fill="white" fill-opacity="0.7" mask="url(#path-1-outside-1_77_183)"/>
</g>
<defs>
<filter id="filter0_ddd_77_183" x="0.54248" y="0.237061" width="628.542" height="137.154" filterUnits="userSpaceOnUse" color-interpolation-filters="sRGB">
<feFlood flood-opacity="0" result="BackgroundImageFix"/>
<feColorMatrix in="SourceAlpha" type="matrix" values="0 0 0 0 0 0 0 0 0 0 0 0 0 0 0 0 0 0 127 0" result="hardAlpha"/>
<feOffset/>
<feGaussianBlur stdDeviation="8.5"/>
<feComposite in2="hardAlpha" operator="out"/>
<feColorMatrix type="matrix" values="0 0 0 0 0.788573 0 0 0 0 0.122999 0 0 0 0 0.999609 0 0 0 0.5 0"/>
<feBlend mode="normal" in2="BackgroundImageFix" result="effect1_dropShadow_77_183"/>
<feColorMatrix in="SourceAlpha" type="matrix" values="0 0 0 0 0 0 0 0 0 0 0 0 0 0 0 0 0 0 127 0" result="hardAlpha"/>
<feOffset dy="4"/>
<feGaussianBlur stdDeviation="12"/>
<feComposite in2="hardAlpha" operator="out"/>
<feColorMatrix type="matrix" values="0 0 0 0 0.713961 0 0 0 0 0.247266 0 0 0 0 1 0 0 0 0.3 0"/>
<feBlend mode="normal" in2="effect1_dropShadow_77_183" result="effect2_dropShadow_77_183"/>
<feColorMatrix in="SourceAlpha" type="matrix" values="0 0 0 0 0 0 0 0 0 0 0 0 0 0 0 0 0 0 127 0" result="hardAlpha"/>
<feOffset dy="1.5"/>
<feGaussianBlur stdDeviation="6"/>
<feComposite in2="hardAlpha" operator="out"/>
<feColorMatrix type="matrix" values="0 0 0 0 0 0 0 0 0 0 0 0 0 0 0 0 0 0 0.25 0"/>
<feBlend mode="normal" in2="effect2_dropShadow_77_183" result="effect3_dropShadow_77_183"/>
<feBlend mode="normal" in="SourceGraphic" in2="effect3_dropShadow_77_183" result="shape"/>
</filter>
</defs>
</svg>
